<svg width="284" height="272" viewBox="0 0 284 272" fill="none" xmlns="http://www.w3.org/2000/svg">
<path opacity="0.4" d="M197.12 213.669L169.24 198.628C167.229 197.54 167.491 195.652 169.823 194.401L187.897 184.669L223.052 203.638L204.979 213.37C202.647 214.616 199.149 214.752 197.12 213.669Z" fill="#D6D8E5"/>
<path d="M199.638 212.293L171.747 197.273C169.742 196.185 169.998 194.297 172.33 193.046L190.404 183.314L225.571 202.262L207.497 211.994C205.159 213.239 201.65 213.375 199.638 212.293Z" fill="#B1B4C4"/>
<path d="M225.547 202.261V201.266L223.921 202.142L225.547 202.261Z" fill="#B1B4C4"/>
<path d="M170.4 195.483V194.471L172.068 195.119L170.4 195.483Z" fill="#B1B4C4"/>
<path d="M199.638 211.303L171.747 196.278C169.742 195.19 169.998 193.307 172.33 192.056L190.404 182.308L225.571 201.25L207.497 210.982C205.159 212.228 201.65 212.385 199.638 211.303Z" fill="#D6D8E5"/>
<path d="M190.479 182.367L186.124 168.898L221.67 187.922L225.547 201.266L190.479 182.367Z" fill="#9EA1AF"/>
<path d="M224.515 201.821L225.547 201.277L224.014 200.135L224.515 201.821Z" fill="#9EA1AF"/>
<path d="M189.354 182.873L185.005 169.404L220.551 188.428L224.515 201.821L189.354 182.873Z" fill="#B1B4C4"/>
<path d="M279.603 224.527L142.014 150.402C140.084 149.363 138.516 146.594 138.516 144.168V44.8551C138.516 42.4561 140.078 41.3518 142.014 42.3908L279.603 116.516C281.533 117.555 283.102 120.324 283.102 122.745V222.063C283.102 224.462 281.522 225.567 279.603 224.527Z" fill="#B1B4C4"/>
<path d="M280.297 225.55L281.825 224.729L281.166 220.513L280.297 225.55Z" fill="#B1B4C4"/>
<path d="M138.253 43.0055L139.758 42.195L141.915 43.3428C141.915 43.3428 139.618 43.6692 139.583 43.6583C139.548 43.6475 138.253 43.0055 138.253 43.0055Z" fill="#B1B4C4"/>
<path d="M278.333 225.207L140.743 151.082C138.813 150.043 137.245 147.274 137.245 144.848V45.5351C137.245 43.1361 138.813 42.0318 140.743 43.0708L278.333 117.196C280.262 118.235 281.831 121.004 281.831 123.425V222.743C281.825 225.142 280.262 226.247 278.333 225.207Z" fill="#E4E7F2"/>
<path d="M278.088 225.333L140.498 151.207C138.568 150.168 137 147.399 137 144.978V45.6657C137 43.2666 138.562 42.1623 140.498 43.2014L278.088 117.327C280.018 118.366 281.586 121.135 281.586 123.556V222.868C281.586 225.284 280.018 226.372 278.088 225.333Z" fill="#D6D8E5"/>
<path d="M279.691 219.3L138.743 143.368L138.819 46.0628C138.819 45.0673 139.571 44.6647 140.492 45.1598L278.082 119.285C278.571 119.583 278.978 119.985 279.268 120.458C279.559 120.931 279.726 121.461 279.755 122.005L279.691 219.3Z" fill="white"/>
<path d="M270.963 134.708L146.025 67.4039C145.592 67.1143 145.238 66.7342 144.991 66.294C144.744 65.8538 144.611 65.3657 144.602 64.8689V56.4532C144.602 55.4794 145.238 55.0279 146.025 55.4522L270.963 122.756C271.397 123.046 271.751 123.427 271.999 123.868C272.246 124.309 272.378 124.799 272.386 125.296V133.707C272.386 134.686 271.75 135.132 270.963 134.708Z" fill="#E9EAF2"/>
<path d="M264.445 157.235L235.079 141.415C234.647 141.126 234.292 140.745 234.045 140.305C233.798 139.865 233.665 139.377 233.657 138.88V121.195C233.657 120.215 234.292 119.769 235.079 120.194L264.445 136.013C264.879 136.302 265.233 136.682 265.48 137.123C265.728 137.563 265.86 138.051 265.868 138.548V156.234C265.845 157.207 265.209 157.659 264.445 157.235Z" fill="#E9EAF2"/>
<path d="M225.739 162.979L152.071 123.267C151.853 123.123 151.676 122.933 151.552 122.713C151.429 122.493 151.362 122.248 151.359 122V118.959C151.359 118.469 151.674 118.241 152.071 118.453L225.739 158.165C225.956 158.31 226.133 158.5 226.256 158.72C226.38 158.94 226.446 159.184 226.451 159.432V162.479C226.451 162.963 226.13 163.191 225.739 162.979Z" fill="#E9EAF2"/>
<path d="M218.487 166.276L152.281 130.628C152.065 130.482 151.888 130.292 151.765 130.072C151.641 129.852 151.574 129.608 151.569 129.36V127.842C151.569 127.353 151.89 127.13 152.281 127.342L218.487 163.006C218.703 163.151 218.88 163.342 219.004 163.562C219.127 163.782 219.194 164.026 219.198 164.274V165.786C219.198 166.26 218.878 166.488 218.487 166.276Z" fill="#E9EAF2"/>
<path d="M218.487 172.021L152.281 136.356C152.064 136.211 151.887 136.021 151.764 135.801C151.64 135.581 151.574 135.337 151.569 135.088V133.571C151.569 133.086 151.89 132.858 152.281 133.07L218.487 168.735C218.703 168.88 218.88 169.07 219.004 169.29C219.127 169.51 219.194 169.754 219.198 170.002V171.52C219.198 172.01 218.878 172.233 218.487 172.021Z" fill="#E9EAF2"/>
<path d="M201.562 168.648L152.281 142.101C152.064 141.956 151.887 141.766 151.764 141.545C151.64 141.325 151.574 141.081 151.569 140.833V139.332C151.569 138.842 151.89 138.619 152.281 138.826L201.562 165.373C201.777 165.52 201.953 165.712 202.076 165.933C202.199 166.153 202.267 166.397 202.273 166.646V168.164C202.273 168.637 201.953 168.86 201.562 168.648Z" fill="#E9EAF2"/>
<path d="M265.133 164.59L234.345 148.003C234.128 147.859 233.95 147.669 233.826 147.449C233.703 147.229 233.637 146.984 233.634 146.735V145.218C233.634 144.728 233.948 144.505 234.345 144.717L265.133 161.304C265.35 161.449 265.527 161.639 265.65 161.859C265.774 162.079 265.84 162.323 265.845 162.571V164.089C265.845 164.579 265.524 164.802 265.133 164.59Z" fill="#E9EAF2"/>
<path d="M265.133 170.34L234.345 153.748C234.128 153.604 233.95 153.414 233.826 153.193C233.703 152.973 233.637 152.729 233.634 152.48V150.968C233.634 150.478 233.948 150.25 234.345 150.462L265.133 167.076C265.35 167.22 265.528 167.41 265.651 167.63C265.775 167.85 265.841 168.095 265.845 168.343V169.855C265.845 170.34 265.524 170.546 265.133 170.34Z" fill="#E9EAF2"/>
<path d="M257.07 171.738L234.333 159.492C234.116 159.348 233.938 159.158 233.815 158.938C233.691 158.718 233.625 158.473 233.622 158.225V156.74C233.622 156.25 233.937 156.027 234.333 156.239L257.07 168.479C257.287 168.624 257.464 168.814 257.588 169.034C257.711 169.254 257.778 169.498 257.782 169.747V171.264C257.782 171.727 257.449 171.972 257.07 171.738Z" fill="#E9EAF2"/>
<path d="M264.445 201.516L235.079 185.697C234.647 185.407 234.292 185.027 234.045 184.587C233.798 184.147 233.665 183.659 233.657 183.162V165.476C233.657 164.503 234.292 164.051 235.079 164.475L264.445 180.295C264.877 180.589 265.228 180.974 265.471 181.418C265.715 181.862 265.842 182.353 265.845 182.852V200.537C265.845 201.489 265.209 201.941 264.445 201.516Z" fill="#E9EAF2"/>
<path d="M265.133 208.871L234.345 192.285C234.128 192.141 233.95 191.951 233.826 191.73C233.703 191.51 233.637 191.266 233.634 191.017V189.505C233.634 189.015 233.948 188.787 234.345 188.999L265.133 205.585C265.348 205.733 265.524 205.924 265.647 206.145C265.77 206.366 265.838 206.61 265.845 206.858V208.371C265.845 208.86 265.524 209.083 265.133 208.871Z" fill="#E9EAF2"/>
<path d="M152.264 66.8359C153.332 66.2606 153.331 64.3936 152.262 62.666C151.193 60.9383 149.46 60.0041 148.393 60.5795C147.325 61.1548 147.325 63.0218 148.394 64.7495C149.463 66.4771 151.196 67.4113 152.264 66.8359Z" fill="#DADCE5"/>
<path d="M215.286 99.81L204.477 93.9892C204.369 93.9163 204.28 93.8208 204.219 93.7103C204.157 93.5998 204.124 93.4773 204.122 93.3527V92.0036C204.122 91.7588 204.279 91.6446 204.477 91.7534L215.286 97.5742C215.395 97.6453 215.484 97.7397 215.546 97.8494C215.608 97.9592 215.641 98.0812 215.642 98.2052V99.5434C215.642 99.8046 215.473 99.9188 215.286 99.81Z" fill="#DADCE5"/>
<path d="M232.776 109.238L221.967 103.428C221.86 103.356 221.771 103.261 221.709 103.151C221.648 103.042 221.614 102.92 221.612 102.797V101.458C221.612 101.214 221.775 101.099 221.967 101.208L232.776 107.029C232.885 107.102 232.973 107.197 233.035 107.308C233.097 107.418 233.13 107.541 233.132 107.665V109.004C233.132 109.227 232.963 109.341 232.776 109.238Z" fill="#DADCE5"/>
<path d="M249.987 118.507L239.178 112.676C239.069 112.604 238.98 112.51 238.918 112.4C238.856 112.291 238.823 112.169 238.822 112.045V110.706C238.822 110.462 238.98 110.353 239.178 110.456L249.987 116.277C250.095 116.35 250.184 116.445 250.245 116.556C250.307 116.666 250.34 116.789 250.342 116.913V118.252C250.342 118.502 250.185 118.611 249.987 118.507Z" fill="#DADCE5"/>
<path d="M267.477 127.908L256.674 122.087C256.566 122.014 256.477 121.918 256.415 121.808C256.354 121.697 256.32 121.575 256.318 121.45V120.112C256.318 119.867 256.476 119.759 256.674 119.862L267.477 125.732C267.586 125.803 267.675 125.897 267.737 126.007C267.799 126.117 267.832 126.239 267.833 126.363V127.701C267.833 127.908 267.675 128.038 267.477 127.908Z" fill="#DADCE5"/>
<path d="M243.62 138.195L241.557 133.239L237.808 138.222L241.924 140.441L245.311 142.264L252.861 146.333L247.393 133.184L243.62 138.195Z" fill="#DADCE5"/>
<path d="M261.537 141.788C262.504 141.27 262.508 139.585 261.547 138.024C260.586 136.464 259.023 135.619 258.057 136.137C257.09 136.656 257.086 138.341 258.047 139.901C259.008 141.462 260.571 142.307 261.537 141.788Z" fill="#DADCE5"/>
<path d="M243.83 183.129L241.772 178.173L238.018 183.156L242.14 185.376L245.527 187.198L253.077 191.267L247.608 178.119L243.83 183.129Z" fill="#DADCE5"/>
<path d="M260.789 186.18C261.751 185.662 261.751 183.982 260.79 182.429C259.829 180.875 258.27 180.036 257.308 180.555C256.346 181.073 256.345 182.752 257.306 184.306C258.268 185.859 259.827 186.698 260.789 186.18Z" fill="#DADCE5"/>
<path d="M158.392 111.7L155.663 121.894V113.168L158.392 111.7Z" fill="#232733"/>
<path d="M126.612 94.4166L123.883 104.617V95.8909L126.612 94.4166Z" fill="#232733"/>
<path d="M171.486 157.667L106.527 122.672C106.139 122.412 105.822 122.071 105.601 121.676C105.381 121.281 105.262 120.843 105.256 120.398V89.3901C105.256 88.5142 105.839 88.1117 106.527 88.4925L171.486 123.488C171.875 123.746 172.193 124.086 172.415 124.48C172.636 124.874 172.756 125.311 172.763 125.756V156.792C172.763 157.646 172.191 158.048 171.486 157.667Z" fill="#E9EAF2"/>
<path d="M124.606 121.312L121.085 112.842L114.672 121.356L121.715 125.153L127.498 128.27L140.412 135.228L131.06 112.744L124.606 121.312Z" fill="#8C50FF"/>
<path d="M160.883 130.445C162.525 129.56 162.524 126.689 160.88 124.033C159.237 121.376 156.573 119.94 154.93 120.825C153.288 121.709 153.289 124.58 154.933 127.237C156.576 129.893 159.24 131.33 160.883 130.445Z" fill="#8C50FF"/>
<path d="M154.468 109.583L154.462 97.9526L150.929 95.4774V109.583L147 111.7L152.695 114.768L158.391 111.7L154.468 109.583Z" fill="#353C4C"/>
<path d="M152.696 114.768L155.663 121.894V113.663V113.168L152.696 114.768Z" fill="#232733"/>
<path d="M147 111.7L149.524 118.543L155.663 121.894L152.696 114.768L147 111.7Z" fill="#2B303F"/>
<path d="M122.682 92.3059V78.1945H119.149V92.3005L115.22 94.4166L120.916 97.4902L126.612 94.4166L122.682 92.3059Z" fill="#353C4C"/>
<path d="M120.916 97.4903L123.883 104.617V96.3859V95.8909L120.916 97.4903Z" fill="#232733"/>
<path d="M115.22 94.4166L117.744 101.26L123.883 104.617L120.916 97.4902L115.22 94.4166Z" fill="#2B303F"/>
<path opacity="0.4" d="M83.819 158.163L48.6287 139.112L6.22656 161.954L44.1629 182.485L86.5708 159.642V156.683L83.819 158.163Z" fill="#D6D8E5"/>
<path d="M88.2849 155.595L48.6287 134.232L8.97253 155.595L6.22656 154.115V157.075L48.6287 179.923L91.0309 157.075V154.115L88.2849 155.595Z" fill="#B1B4C4"/>
<path d="M48.6287 176.958L6.22656 154.115L48.6287 131.273L91.0309 154.115L48.6287 176.958Z" fill="#E7E9F2"/>
<path d="M48.4946 145.656L51.2639 144.165V33.8368L48.4946 35.3274V145.656Z" fill="#B1B4C4"/>
<path d="M48.7161 80.3434L68.0778 108.936L70.847 107.881L51.2638 79.0051L48.7161 80.3434Z" fill="#B1B4C4"/>
<path d="M48.5996 85.4297L67.973 114.164V108.789L48.5996 80.1584V85.4297Z" fill="#D6D8E5"/>
<path d="M45.8303 144.165L48.5996 145.656V35.3274L45.8303 33.8368V144.165Z" fill="#D6D8E5"/>
<path d="M67.9729 156.095L70.7422 157.586V47.2573L67.9729 45.7667V156.095Z" fill="#D6D8E5"/>
<path d="M70.6372 157.586L73.4065 156.095V45.7667L70.6372 47.2573V157.586Z" fill="#B1B4C4"/>
<path d="M48.5996 137.703L67.973 116.057V110.867L48.5996 132.546V137.703Z" fill="#D6D8E5"/>
<path d="M48.5996 137.703L51.264 136.343L67.973 117.548V115.654L48.5996 137.703Z" fill="#B1B4C4"/>
<path d="M48.5996 80.3433L67.973 58.6976V53.5078L48.5996 75.1862V80.3433Z" fill="#D6D8E5"/>
<path d="M48.5996 80.3434L51.264 78.9779L67.973 60.1882V58.295L48.5996 80.3434Z" fill="#B1B4C4"/>
<path d="M26.5151 157.57L29.2844 156.079V45.7504L26.5151 47.241V157.57Z" fill="#B1B4C4"/>
<path d="M26.7368 92.257L46.0985 120.844L48.8678 119.794L29.2846 90.9187L26.7368 92.257Z" fill="#B1B4C4"/>
<path d="M26.6201 97.3434L45.9935 126.072V120.703L26.6201 92.0666V97.3434Z" fill="#D6D8E5"/>
<path d="M23.8567 156.079L26.6201 157.57V47.241L23.8567 45.7504V156.079Z" fill="#D6D8E5"/>
<path d="M45.9934 168.004L48.7627 169.494V59.1709L45.9934 57.6749V168.004Z" fill="#D6D8E5"/>
<path d="M48.6577 169.494L51.427 168.004V57.6749L48.6577 59.1709V169.494Z" fill="#B1B4C4"/>
<path d="M26.6201 149.616L45.9935 127.971V122.775L26.6201 144.459V149.616Z" fill="#D6D8E5"/>
<path d="M26.6201 149.616L29.2845 148.251L45.9935 129.461V127.563L26.6201 149.616Z" fill="#B1B4C4"/>
<path d="M26.6201 92.257L45.9935 70.6112V65.416L26.6201 87.0944V92.257Z" fill="#D6D8E5"/>
<path d="M26.6201 92.257L29.2845 90.8915L45.9935 72.0963V70.2032L26.6201 92.257Z" fill="#B1B4C4"/>
<path d="M48.7628 64.7578L20.178 49.3571L48.7628 33.9619L77.3477 49.3571L48.7628 64.7578Z" fill="#F7DC6B"/>
<path d="M46.6347 20.623L12.7445 38.8797L3.04321 33.6518L36.9334 15.3952L46.6347 20.623Z" fill="#353C4C"/>
<path d="M3.04321 40.9741V33.6518L12.7445 38.8797V46.2019L3.04321 40.9741Z" fill="#2B303F"/>
<path d="M12.7446 46.2019L46.6349 27.9453V20.623L12.7446 38.8797V45.4893" fill="#232733"/>
<path d="M46.6347 12.4087L12.7445 30.6653L3.04321 25.4375L36.9334 7.18082L46.6347 12.4087Z" fill="#353C4C"/>
<path d="M3.04321 32.7651V25.4374L12.7445 30.6653V37.993L3.04321 32.7651Z" fill="#2B303F"/>
<path d="M12.7446 37.993L46.6349 19.7363V12.4086L12.7446 30.6653V37.2803" fill="#232733"/>
<path d="M21.0174 35.1152L0 23.8653V19.7635L21.0174 30.9427V35.1152Z" fill="#D6D8E5"/>
<path d="M51.4271 47.2301L0 19.7635L3.80704 17.7126L55.2341 45.1792L51.4271 47.2301Z" fill="#E7E9F2"/>
<path d="M44.1395 28.6307L17.7351 14.3779V10.2707L44.1395 23.4736V28.6307Z" fill="#D6D8E5"/>
<path d="M64.1658 34.865L17.7351 10.2762L21.5421 8.22528L67.9729 32.8141L64.1658 34.865Z" fill="#E7E9F2"/>
<path d="M31.803 17.8432V21.945L33.6103 33.7552L36.2921 35.311L31.803 17.8432Z" fill="#D6D8E5"/>
<path d="M39.7494 37.0627L36.2746 20.2531L31.803 17.8432L34.514 34.408L39.7494 37.0627Z" fill="#E7E9F2"/>
<path d="M31.8032 21.945L17.9334 25.3558L10.8091 21.5152L31.1969 17.5059L31.8032 17.8432V21.945Z" fill="#B1B4C4"/>
<path d="M31.803 17.8432L12.4879 22.4237L8.33691 20.1878L27.8035 15.5475L31.803 17.8432Z" fill="#E7E9F2"/>
<path d="M48.7628 30.8013L20.178 15.4006L48.7628 0L77.3477 15.4006L48.7628 30.8013Z" fill="#E7E9F2"/>
<path d="M21 62.5565V15L49.5849 30.4006V77.9571L21 62.5565Z" fill="#D6D8E5"/>
<path d="M77.3476 15.4006V62.9571L48.7627 78.3578V30.7958L77.3476 15.4006Z" fill="#B1B4C4"/>
<path d="M48.7628 47.3661L32.3512 38.5261L27.075 22.8589L48.7628 34.544V47.3661Z" fill="#8C50FF"/>
<path d="M77.3476 19.1434V31.9654L48.7627 47.3715V34.5494L77.3476 19.1434Z" fill="#7C4CF2"/>
<path d="M176.226 119.283L52.5405 52.6483V48.5466L176.226 115.181V119.283Z" fill="#D6D8E5"/>
<path d="M176.226 115.181L52.5405 48.552L56.3476 46.5011L180.033 113.13L176.226 115.181Z" fill="#E7E9F2"/>
<path d="M193.961 109.796L70.2756 43.161V39.0592L193.961 105.694V109.796Z" fill="#D6D8E5"/>
<path d="M193.961 105.694L70.2756 39.0592L74.0827 37.0083L197.768 103.643L193.961 105.694Z" fill="#E7E9F2"/>
<path d="M197.768 107.756L176.226 119.283V115.176L197.768 103.654V107.756Z" fill="#B1B4C4"/>
<path d="M197.768 103.654L176.237 115.181L173.013 113.446L194.544 101.918L197.768 103.654Z" fill="#E7E9F2"/>
<path d="M178.459 101.434L164.583 104.845L157.459 101.004L177.847 96.9952L178.459 97.3325V101.434Z" fill="#B1B4C4"/>
<path d="M178.459 97.3325L159.144 101.913L154.993 99.6717L174.453 95.0368L178.459 97.3325Z" fill="#E7E9F2"/>
<path d="M147.157 80.4902V84.592L148.964 96.4022L151.646 97.9526L147.157 80.4902Z" fill="#D6D8E5"/>
<path d="M155.103 99.7097L151.629 82.9002L147.157 80.4902L149.874 97.055L155.103 99.7097Z" fill="#E7E9F2"/>
<path d="M147.157 84.592L133.287 88.0029L126.163 84.1622L146.551 80.153L147.157 80.4902V84.592Z" fill="#B1B4C4"/>
<path d="M147.157 80.4902L127.848 85.0707L123.697 82.8349L143.158 78.1945L147.157 80.4902Z" fill="#E7E9F2"/>
<path d="M115.75 63.5555V67.6573L117.552 79.4676L120.239 81.0234L115.75 63.5555Z" fill="#D6D8E5"/>
<path d="M123.697 82.7751L120.222 65.9655L115.75 63.5555L118.461 80.1203L123.697 82.7751Z" fill="#E7E9F2"/>
<path d="M115.75 67.6573L101.881 71.0682L94.7563 67.2275L115.144 63.2182L115.75 63.5555V67.6573Z" fill="#B1B4C4"/>
<path d="M115.75 63.5555L96.4352 68.136L92.2842 65.9001L111.751 61.2598L115.75 63.5555Z" fill="#E7E9F2"/>
<path d="M84.3438 46.6317V50.7334L86.1452 62.5437L88.8329 64.0941L84.3438 46.6317Z" fill="#D6D8E5"/>
<path d="M92.2843 65.8512L88.8154 49.0416L84.3438 46.6317L87.0547 63.1965L92.2843 65.8512Z" fill="#E7E9F2"/>
<path d="M84.3437 50.7334L70.474 54.1443L63.3496 50.3037L83.7374 46.2944L84.3437 46.6317V50.7334Z" fill="#B1B4C4"/>
<path d="M84.3437 46.6317L65.0287 51.2122L60.8777 48.9763L80.3385 44.336L84.3437 46.6317Z" fill="#E7E9F2"/>
<path opacity="0.4" d="M54.9019 272L38.6826 263.34L62.9591 250.376L79.1783 259.031L54.9019 272Z" fill="#D6D8E5"/>
<path d="M55.2399 254.543L41.8074 247.302L55.2399 240.067L68.6724 247.308L55.2399 254.543Z" fill="#D6D8E5"/>
<path d="M55.2399 269.019L41.8074 261.778V247.302L55.2399 254.543V269.019Z" fill="#B1B6C4"/>
<path d="M68.6725 261.778L55.24 269.019V254.543L68.6725 247.302V261.778Z" fill="#C4C7D6"/>
<path d="M73.2956 257.225C74.4582 257.526 75.7012 257.385 76.7528 256.833C77.5865 256.833 82.1107 255.049 82.7287 256.567C83.265 257.9 81.3061 259.129 80.2567 259.363C77.9713 259.907 76.2806 260.946 75.3653 261.126C74.6832 261.262 73.797 261.349 73.249 260.848C72.596 260.244 72.6543 258.019 73.2956 257.225Z" fill="#38226D"/>
<path d="M75.3653 260.756C76.2806 260.576 77.9714 259.515 80.2567 258.998C81.1371 258.797 82.6471 257.91 82.7987 256.822C83.0027 258.046 81.2362 259.134 80.2567 259.352C77.9714 259.896 76.2806 260.935 75.3653 261.115C74.6832 261.251 73.797 261.338 73.249 260.837C73.1107 260.689 73.0092 260.515 72.9517 260.326C73.2901 260.568 73.6847 260.733 74.1038 260.808C74.5229 260.883 74.955 260.865 75.3653 260.756Z" fill="#9C73FF"/>
<path d="M65.1336 253.172C66.2981 253.473 67.543 253.333 68.5966 252.78C69.4303 252.78 73.9545 250.996 74.5666 252.514C75.1088 253.847 73.1499 255.076 72.1005 255.31C69.8151 255.827 68.1244 256.893 67.2033 257.073C66.5211 257.209 65.635 257.296 65.0928 256.795C64.4398 256.191 64.4923 253.966 65.1336 253.172Z" fill="#38226D"/>
<path d="M67.2032 256.703C68.1244 256.523 69.8151 255.462 72.1005 254.946C72.975 254.744 74.4908 253.858 74.6424 252.77C74.8464 253.994 73.0741 255.082 72.1005 255.299C69.8151 255.816 68.1244 256.882 67.2032 257.062C66.5211 257.198 65.6349 257.285 65.0927 256.784C64.9505 256.638 64.8467 256.463 64.7896 256.273C65.1282 256.515 65.5228 256.68 65.9419 256.754C66.3609 256.829 66.7928 256.811 67.2032 256.703Z" fill="#9C73FF"/>
<path d="M52.4298 247.917C55.9279 249.364 59.286 249.593 62.0086 248.227L64.8187 246.715C64.9878 250.099 65.1452 253.352 65.1452 253.352C65.1452 253.352 67.3023 254.875 68.9814 253.515C68.9814 253.515 69.3312 248.766 69.6868 244.093L72.6369 242.504C72.5659 242.753 72.5268 243.009 72.5203 243.266C72.5203 244.158 73.2024 257.356 73.2024 257.356C73.2024 257.356 75.377 258.563 77.0561 257.203C77.0561 257.203 78.1871 241.906 78.4436 239.463C78.7351 236.716 75.4644 235.362 73.4006 236.069C72.9167 236.227 71.7332 236.64 70.2349 237.157C70.299 236.39 70.3515 235.797 70.3865 235.46C70.6838 232.707 67.4131 231.352 65.3434 232.06C63.4545 232.701 50.7216 237.184 50.7216 237.184C50.801 238.324 50.9508 239.46 51.1705 240.584L46.145 240.192C45.8418 244.582 48.9085 246.47 52.4298 247.917ZM61.2157 240.301L64.5797 238.49C64.5203 238.711 64.4832 238.937 64.4689 239.164L61.2157 240.301Z" fill="#8C50FF"/>
<path d="M43.3875 226.777C43.3875 226.777 43.8014 232.614 44.6234 233.458C45.4455 234.301 48.2206 234.872 48.2206 234.872L50.3544 238.136C50.3544 238.136 48.3897 227.718 47.9816 227.468C47.5734 227.218 43.3875 226.777 43.3875 226.777Z" fill="#FFCEA9"/>
<path d="M47.4976 220.32C46.9782 220.095 46.3881 220.055 45.8397 220.21C45.2914 220.364 44.8231 220.702 44.5243 221.158C43.7372 222.376 42.921 226.543 42.8452 227.256C42.8452 227.256 43.9471 228.681 45.6028 228.442L47.4976 220.32Z" fill="#EDEDED"/>
<path d="M48.2497 220.369C49.3341 220.418 50.1386 220.679 50.2727 220.369C50.3886 219.85 50.4704 219.325 50.5176 218.797C50.3951 218.503 50.2844 218.188 50.2844 218.188C48.9318 217.41 48.5004 216.012 48.3196 214.445C48.0165 211.725 49.5964 209.331 52.5173 209.048C55.2632 208.782 57.2804 210.582 57.8226 213.052C58.1083 214.276 58.6913 216.583 57.9101 218.59C57.4728 219.711 56.9073 220.603 56.3476 220.766C55.803 220.751 55.2598 220.706 54.721 220.63C54.721 220.63 54.5753 221.386 54.4762 221.87C54.3771 222.355 54.4179 222.616 55.4498 223.209C56.4817 223.802 53.8815 225.031 52.185 224.911C50.4884 224.792 48.5703 223.823 48.0398 222.806C47.4568 221.685 47.5092 220.32 48.2497 220.369Z" fill="#FFCEA9"/>
<path d="M75.6393 238.223C75.6404 238.367 75.6005 238.509 75.5237 238.634C75.4469 238.76 75.3359 238.864 75.202 238.936L66.9641 243.375C66.8303 243.447 66.6785 243.485 66.524 243.485C66.3694 243.485 66.2176 243.447 66.0838 243.375L54.5286 237.151C54.3955 237.08 54.2851 236.977 54.2083 236.853C54.1316 236.728 54.0912 236.588 54.0913 236.444V236.379L75.6393 238.223Z" fill="#E5E5E5"/>
<path d="M75.2078 238.936L66.9699 243.375C66.8353 243.447 66.6823 243.485 66.5269 243.484V238.223H75.6451C75.6462 238.367 75.6063 238.509 75.5295 238.634C75.4527 238.76 75.3417 238.864 75.2078 238.936Z" fill="#E5E5E5"/>
<path d="M66.8301 242.972C66.7361 243.023 66.6296 243.049 66.5211 243.049C66.4126 243.049 66.306 243.023 66.2121 242.972L54.2196 236.504C54.0622 236.422 54.0622 236.286 54.2196 236.205L63.058 231.439L75.651 238.223L66.8301 242.972Z" fill="#F4F4F4"/>
<path d="M59.1401 238.223L59.1984 238.256L63.0463 240.328L65.1568 239.191L65.2209 239.159L61.3089 237.053L59.1401 238.223Z" fill="#BFBFBF"/>
<path d="M59.1985 238.256L63.0463 240.328L65.1568 239.191L61.309 237.119L59.1985 238.256Z" fill="#E5E5E5"/>
<path d="M72.3744 238.56L72.9574 238.86C72.9847 238.872 73.0146 238.878 73.0449 238.878C73.0751 238.878 73.105 238.872 73.1323 238.86L73.6628 238.571C73.7153 238.544 73.7211 238.501 73.6628 238.479L73.0798 238.18C73.0529 238.166 73.0229 238.159 72.9924 238.159C72.9619 238.159 72.9319 238.166 72.9049 238.18L72.3744 238.462C72.3394 238.495 72.3336 238.533 72.3744 238.56Z" fill="#3A2C6D"/>
<path d="M71.5931 238.136L72.1761 238.435C72.2031 238.449 72.2331 238.456 72.2636 238.456C72.2941 238.456 72.3241 238.449 72.351 238.435L72.8816 238.147C72.934 238.12 72.9399 238.076 72.8816 238.054L72.2986 237.755C72.2716 237.742 72.2416 237.735 72.2111 237.735C72.1806 237.735 72.1506 237.742 72.1237 237.755L71.5931 238.044C71.5523 238.071 71.5465 238.114 71.5931 238.136Z" fill="#3A2C6D"/>
<path d="M70.806 237.728L71.389 238.027C71.416 238.041 71.446 238.048 71.4765 238.048C71.507 238.048 71.537 238.041 71.5639 238.027L72.0945 237.744C72.1469 237.712 72.1528 237.674 72.0945 237.646L71.5406 237.347C71.5133 237.335 71.4834 237.329 71.4532 237.329C71.4229 237.329 71.393 237.335 71.3657 237.347L70.8352 237.636C70.7652 237.646 70.7594 237.69 70.806 237.728Z" fill="#3A2C6D"/>
<path d="M70.0191 237.293L70.6021 237.592C70.6305 237.604 70.6613 237.61 70.6924 237.61C70.7236 237.61 70.7544 237.604 70.7828 237.592L71.3133 237.309C71.3658 237.309 71.3716 237.238 71.3133 237.211L70.7303 236.912C70.7024 236.899 70.6714 236.892 70.64 236.892C70.6085 236.892 70.5776 236.899 70.5496 236.912L70.0191 237.195C69.9608 237.222 69.9608 237.266 70.0191 237.293Z" fill="#3A2C6D"/>
<path d="M69.2321 236.869L69.8151 237.168C69.842 237.181 69.8721 237.188 69.9025 237.188C69.933 237.188 69.9631 237.181 69.99 237.168L70.5205 236.885C70.573 236.858 70.5788 236.814 70.5205 236.792L69.9375 236.493C69.9096 236.48 69.8786 236.473 69.8472 236.473C69.8157 236.473 69.7848 236.48 69.7568 236.493L69.2321 236.776C69.1971 236.798 69.1913 236.841 69.2321 236.869Z" fill="#3A2C6D"/>
<path d="M68.4508 236.444L69.0338 236.743C69.0611 236.756 69.091 236.762 69.1213 236.762C69.1515 236.762 69.1814 236.756 69.2087 236.743L69.7392 236.455C69.7917 236.455 69.7975 236.384 69.7392 236.363L69.1562 236.063C69.1293 236.05 69.0993 236.043 69.0688 236.043C69.0383 236.043 69.0083 236.05 68.9813 236.063L68.4508 236.346C68.41 236.379 68.4042 236.417 68.4508 236.444Z" fill="#3A2C6D"/>
<path d="M67.6638 236.02L68.2468 236.319C68.2737 236.332 68.3038 236.339 68.3342 236.339C68.3647 236.339 68.3948 236.332 68.4217 236.319L68.9522 236.031C69.0047 236.004 69.0105 235.96 68.9522 235.938L68.3984 235.639C68.3714 235.626 68.3414 235.619 68.3109 235.619C68.2804 235.619 68.2504 235.626 68.2235 235.639L67.6929 235.927C67.6288 235.955 67.6288 235.998 67.6638 236.02Z" fill="#3A2C6D"/>
<path d="M66.8766 235.596L67.4596 235.895C67.4876 235.908 67.5185 235.915 67.55 235.915C67.5814 235.915 67.6124 235.908 67.6403 235.895L68.1709 235.612C68.2233 235.579 68.2233 235.541 68.1709 235.514L67.5879 235.215C67.5595 235.203 67.5287 235.196 67.4975 235.196C67.4663 235.196 67.4355 235.203 67.4071 235.215L66.8766 235.503C66.8358 235.552 66.8299 235.552 66.8766 235.596Z" fill="#3A2C6D"/>
<path d="M66.0895 235.177L66.6725 235.476C66.6999 235.488 66.7298 235.494 66.76 235.494C66.7901 235.494 66.82 235.488 66.8474 235.476L67.3779 235.193C67.4304 235.166 67.4362 235.122 67.3779 235.095L66.7949 234.796C66.767 234.783 66.736 234.776 66.7046 234.776C66.6731 234.776 66.6422 234.783 66.6142 234.796L66.0895 235.079C66.0545 235.106 66.0487 235.15 66.0895 235.177Z" fill="#3A2C6D"/>
<path d="M65.2968 234.752L65.8798 235.052C65.9067 235.065 65.9368 235.072 65.9673 235.072C65.9978 235.072 66.0278 235.065 66.0547 235.052L66.5852 234.769C66.6377 234.741 66.6435 234.698 66.5852 234.676L66.0022 234.377C65.9753 234.364 65.9453 234.357 65.9148 234.357C65.8843 234.357 65.8543 234.364 65.8273 234.377L65.2968 234.66C65.2968 234.682 65.2618 234.725 65.2968 234.752Z" fill="#3A2C6D"/>
<path d="M64.5213 234.328L65.1044 234.627C65.1317 234.639 65.1616 234.646 65.1918 234.646C65.2221 234.646 65.2519 234.639 65.2793 234.627L65.8098 234.339C65.8623 234.312 65.8681 234.268 65.8098 234.246L65.2559 233.947C65.229 233.934 65.199 233.927 65.1685 233.927C65.138 233.927 65.108 233.934 65.081 233.947L64.5505 234.23C64.4805 234.263 64.4747 234.301 64.5213 234.328Z" fill="#3A2C6D"/>
<path d="M63.7342 233.92L64.3173 234.219C64.3452 234.233 64.3762 234.24 64.4076 234.24C64.439 234.24 64.47 234.233 64.498 234.219L65.0285 233.931C65.081 233.904 65.081 233.86 65.0285 233.838L64.4455 233.539C64.4175 233.526 64.3866 233.519 64.3552 233.519C64.3237 233.519 64.2928 233.526 64.2648 233.539L63.7342 233.828C63.6934 233.838 63.6876 233.882 63.7342 233.92Z" fill="#3A2C6D"/>
<path d="M62.9647 233.479L63.5477 233.779C63.5746 233.792 63.6046 233.799 63.6351 233.799C63.6656 233.799 63.6956 233.792 63.7226 233.779L64.2531 233.496C64.3056 233.463 64.3114 233.425 64.2531 233.398L63.6701 233.099C63.6418 233.086 63.6109 233.08 63.5797 233.08C63.5485 233.08 63.5177 233.086 63.4894 233.099L62.9647 233.387C62.9122 233.414 62.9064 233.458 62.9647 233.479Z" fill="#3A2C6D"/>
<path d="M61.7986 232.832L62.7315 233.338C62.7588 233.35 62.7887 233.356 62.8189 233.356C62.8492 233.356 62.879 233.35 62.9064 233.338L63.4369 233.055C63.4894 233.028 63.4952 232.984 63.4369 232.957L62.5041 232.457C62.4772 232.443 62.4471 232.436 62.4166 232.436C62.3861 232.436 62.3561 232.443 62.3292 232.457L61.7986 232.745C61.7462 232.789 61.7403 232.832 61.7986 232.832Z" fill="#3A2C6D"/>
<path d="M70.4506 238.343L71.0336 238.642C71.0609 238.654 71.0908 238.66 71.121 238.66C71.1513 238.66 71.1811 238.654 71.2085 238.642L71.739 238.354C71.7915 238.326 71.7973 238.283 71.739 238.261L71.156 237.962C71.1291 237.949 71.099 237.942 71.0685 237.942C71.0381 237.942 71.008 237.949 70.9811 237.962L70.4506 238.245C70.4097 238.272 70.4039 238.316 70.4506 238.343Z" fill="#3A2C6D"/>
<path d="M69.6634 237.918L70.2465 238.218C70.2748 238.23 70.3056 238.236 70.3368 238.236C70.368 238.236 70.3989 238.23 70.4272 238.218L70.9519 237.929C71.0044 237.902 71.0102 237.859 70.9519 237.837L70.3689 237.538C70.3419 237.524 70.3119 237.517 70.2814 237.517C70.2509 237.517 70.2209 237.524 70.194 237.538L69.6634 237.826C69.6226 237.853 69.6168 237.897 69.6634 237.918Z" fill="#3A2C6D"/>
<path d="M68.8763 237.494L69.4593 237.793C69.4873 237.807 69.5183 237.814 69.5497 237.814C69.5811 237.814 69.6121 237.807 69.6401 237.793L70.1648 237.505C70.2173 237.478 70.2231 237.434 70.1648 237.413L69.5818 237.113C69.5548 237.1 69.5248 237.093 69.4943 237.093C69.4638 237.093 69.4338 237.1 69.4069 237.113L68.8763 237.402C68.8355 237.429 68.8297 237.472 68.8763 237.494Z" fill="#3A2C6D"/>
<path d="M68.0894 237.07L68.6432 237.369C68.6712 237.382 68.7022 237.389 68.7336 237.389C68.765 237.389 68.796 237.382 68.824 237.369L69.3487 237.081C69.4011 237.053 69.407 237.01 69.3487 236.988L68.7657 236.689C68.7387 236.676 68.7087 236.669 68.6782 236.669C68.6477 236.669 68.6177 236.676 68.5908 236.689L68.0602 236.977C68.0486 237.005 68.0427 237.048 68.0894 237.07Z" fill="#3A2C6D"/>
<path d="M67.308 236.64L67.891 236.939C67.9193 236.951 67.9502 236.958 67.9814 236.958C68.0126 236.958 68.0434 236.951 68.0717 236.939L68.5964 236.651C68.6489 236.651 68.6547 236.58 68.5964 236.558L68.0134 236.259C67.9865 236.246 67.9565 236.239 67.926 236.239C67.8955 236.239 67.8654 236.246 67.8385 236.259L67.308 236.542C67.2672 236.586 67.2613 236.64 67.308 236.64Z" fill="#3A2C6D"/>
<path d="M66.521 236.227L67.104 236.526C67.1324 236.538 67.1632 236.544 67.1944 236.544C67.2256 236.544 67.2564 236.538 67.2848 236.526L67.8095 236.238C67.8619 236.21 67.8678 236.167 67.8095 236.145L67.2265 235.846C67.1995 235.832 67.1695 235.826 67.139 235.826C67.1085 235.826 67.0785 235.832 67.0516 235.846L66.521 236.129C66.4627 236.161 66.4627 236.199 66.521 236.227Z" fill="#3A2C6D"/>
<path d="M65.734 235.802L66.317 236.101C66.3453 236.114 66.3762 236.12 66.4074 236.12C66.4386 236.12 66.4694 236.114 66.4977 236.101L67.0225 235.813C67.0749 235.786 67.0808 235.742 67.0225 235.721L66.4394 235.422C66.4125 235.408 66.3825 235.401 66.352 235.401C66.3215 235.401 66.2915 235.408 66.2645 235.422L65.734 235.704C65.6932 235.737 65.6874 235.775 65.734 235.802Z" fill="#3A2C6D"/>
<path d="M64.9468 235.378L65.5007 235.677C65.529 235.689 65.5598 235.696 65.591 235.696C65.6222 235.696 65.6531 235.689 65.6814 235.677L66.2119 235.389C66.2586 235.362 66.2644 235.318 66.2119 235.296L65.6289 234.997C65.602 234.984 65.572 234.977 65.5415 234.977C65.511 234.977 65.481 234.984 65.454 234.997L64.9235 235.285C64.906 235.313 64.9002 235.356 64.9468 235.378Z" fill="#3A2C6D"/>
<path d="M64.1598 234.954L64.7428 235.253C64.7708 235.266 64.8017 235.273 64.8331 235.273C64.8646 235.273 64.8955 235.266 64.9235 235.253L65.4541 234.965C65.5007 234.937 65.5065 234.894 65.4541 234.872L64.9002 234.573C64.8722 234.559 64.8413 234.552 64.8098 234.552C64.7784 234.552 64.7474 234.559 64.7195 234.573L64.1889 234.861C64.1306 234.888 64.1306 234.932 64.1598 234.954Z" fill="#3A2C6D"/>
<path d="M63.3727 234.529L63.9557 234.829C63.9837 234.842 64.0146 234.849 64.0461 234.849C64.0775 234.849 64.1084 234.842 64.1364 234.829L64.667 234.54C64.7194 234.513 64.7194 234.47 64.667 234.448L64.0839 234.149C64.0556 234.136 64.0248 234.13 63.9936 234.13C63.9624 234.13 63.9315 234.136 63.9032 234.149L63.3727 234.437C63.3319 234.464 63.326 234.508 63.3727 234.529Z" fill="#3A2C6D"/>
<path d="M62.5858 234.105L63.1688 234.404C63.1968 234.418 63.2278 234.425 63.2592 234.425C63.2906 234.425 63.3216 234.418 63.3496 234.404L63.8801 234.121C63.9326 234.089 63.9326 234.045 63.8801 234.023L63.2971 233.724C63.2687 233.712 63.2379 233.706 63.2067 233.706C63.1755 233.706 63.1447 233.712 63.1163 233.724L62.5858 234.013C62.545 234.04 62.5392 234.083 62.5858 234.105Z" fill="#3A2C6D"/>
<path d="M61.7987 233.681L62.3817 233.98C62.4097 233.993 62.4407 234 62.4721 234C62.5035 234 62.5345 233.993 62.5624 233.98L63.093 233.697C63.1455 233.664 63.1513 233.626 63.093 233.599L62.51 233.3C62.4816 233.288 62.4508 233.281 62.4196 233.281C62.3884 233.281 62.3576 233.288 62.3292 233.3L61.7987 233.588C61.7579 233.615 61.7521 233.659 61.7987 233.681Z" fill="#3A2C6D"/>
<path d="M71.2377 238.767L72.1705 239.268C72.1974 239.281 72.2274 239.288 72.2579 239.288C72.2884 239.288 72.3184 239.281 72.3454 239.268L72.8759 238.985C72.9284 238.952 72.9342 238.914 72.8759 238.887L71.9431 238.386C71.9162 238.373 71.8861 238.366 71.8557 238.366C71.8252 238.366 71.7951 238.373 71.7682 238.386L71.2377 238.669C71.1969 238.702 71.191 238.74 71.2377 238.767Z" fill="#3A2C6D"/>
<path d="M61.7347 232.876L62.3177 233.175C62.33 233.175 62.3419 233.179 62.3506 233.188C62.3594 233.196 62.3643 233.207 62.3643 233.218C62.3643 233.23 62.3594 233.241 62.3506 233.249C62.3419 233.257 62.33 233.262 62.3177 233.262L61.7347 233.566C61.709 233.577 61.6812 233.583 61.653 233.583C61.6249 233.583 61.5971 233.577 61.5714 233.566L61.5248 233.539C61.5011 233.529 61.4752 233.523 61.449 233.523C61.4227 233.523 61.3968 233.529 61.3732 233.539L60.7902 233.86C60.7645 233.871 60.7367 233.877 60.7086 233.877C60.6804 233.877 60.6526 233.871 60.6269 233.86L60.2713 233.67C60.2247 233.643 60.2247 233.605 60.2713 233.583L60.8543 233.284L60.9709 233.224L61.0525 233.175L61.1342 233.131L61.6122 232.876C61.6515 232.861 61.6954 232.861 61.7347 232.876Z" fill="#3A2C6D"/>
<path d="M69.3312 240.198L69.9142 240.497C69.9411 240.51 69.9711 240.517 70.0016 240.517C70.0321 240.517 70.0621 240.51 70.0891 240.497L70.6196 240.214C70.6721 240.181 70.6779 240.143 70.6196 240.116L70.0658 239.817C70.0384 239.805 70.0085 239.799 69.9783 239.799C69.948 239.799 69.9182 239.805 69.8908 239.817L69.3603 240.105C69.2904 240.133 69.2845 240.176 69.3312 240.198Z" fill="#3A2C6D"/>
<path d="M68.5441 239.779L69.1271 240.078C69.155 240.092 69.186 240.098 69.2174 240.098C69.2489 240.098 69.2798 240.092 69.3078 240.078L69.8325 239.795C69.885 239.795 69.8908 239.725 69.8325 239.697L69.2495 239.404C69.2226 239.39 69.1925 239.383 69.162 239.383C69.1316 239.383 69.1015 239.39 69.0746 239.404L68.5441 239.686C68.5033 239.708 68.4974 239.752 68.5441 239.779Z" fill="#3A2C6D"/>
<path d="M67.7628 239.36L68.3458 239.659C68.3728 239.673 68.4028 239.68 68.4333 239.68C68.4638 239.68 68.4938 239.673 68.5207 239.659L69.0513 239.371C69.1037 239.344 69.1096 239.3 69.0513 239.278L68.4683 238.979C68.4413 238.966 68.4113 238.959 68.3808 238.959C68.3503 238.959 68.3203 238.966 68.2933 238.979L67.7628 239.268C67.722 239.289 67.7162 239.36 67.7628 239.36Z" fill="#3A2C6D"/>
<path d="M61.0873 235.759L61.6703 236.058C61.6972 236.071 61.7273 236.078 61.7578 236.078C61.7883 236.078 61.8183 236.071 61.8452 236.058L62.3758 235.775C62.4282 235.775 62.4341 235.704 62.3758 235.677L61.7927 235.378C61.7648 235.365 61.7338 235.358 61.7024 235.358C61.671 235.358 61.64 235.365 61.612 235.378L61.0873 235.661C61.0523 235.693 61.0465 235.737 61.0873 235.759Z" fill="#3A2C6D"/>
<path d="M60.3063 235.34L60.8893 235.639C60.9176 235.651 60.9484 235.658 60.9796 235.658C61.0108 235.658 61.0417 235.651 61.07 235.639L61.5947 235.351C61.6472 235.324 61.653 235.28 61.5947 235.258L61.0117 234.959C60.9848 234.946 60.9547 234.939 60.9243 234.939C60.8938 234.939 60.8637 234.946 60.8368 234.959L60.3063 235.242C60.2655 235.275 60.2596 235.313 60.3063 235.34Z" fill="#3A2C6D"/>
<path d="M59.5249 234.916L60.1079 235.215C60.1349 235.228 60.1649 235.235 60.1954 235.235C60.2259 235.235 60.2559 235.228 60.2828 235.215L60.8134 234.932C60.8658 234.899 60.8717 234.861 60.8134 234.834L60.2304 234.535C60.203 234.523 60.1732 234.516 60.1429 234.516C60.1127 234.516 60.0828 234.523 60.0555 234.535L59.5249 234.823C59.4666 234.85 59.4666 234.894 59.5249 234.916Z" fill="#3A2C6D"/>
<path d="M58.7379 234.497L59.3209 234.796C59.3479 234.809 59.3779 234.816 59.4084 234.816C59.4389 234.816 59.4689 234.809 59.4958 234.796L60.0264 234.513C60.0789 234.486 60.0847 234.442 60.0264 234.415L59.4434 234.121C59.4154 234.108 59.3844 234.101 59.353 234.101C59.3216 234.101 59.2906 234.108 59.2626 234.121L58.7379 234.404C58.703 234.426 58.6971 234.464 58.7379 234.497Z" fill="#3A2C6D"/>
<path d="M66.7775 238.816L67.5354 239.219C67.5623 239.232 67.5923 239.239 67.6228 239.239C67.6533 239.239 67.6833 239.232 67.7103 239.219L68.2408 238.936C68.2933 238.909 68.2991 238.865 68.2408 238.838L67.4829 238.43C67.456 238.416 67.4259 238.41 67.3954 238.41C67.365 238.41 67.3349 238.416 67.308 238.43L66.7775 238.713C66.7366 238.756 66.7308 238.816 66.7775 238.816Z" fill="#3A2C6D"/>
<path d="M61.8744 236.183L62.6323 236.591C62.6596 236.603 62.6895 236.609 62.7197 236.609C62.75 236.609 62.7799 236.603 62.8072 236.591L63.3377 236.303C63.3902 236.276 63.396 236.232 63.3377 236.21L62.5798 235.802C62.5529 235.789 62.5229 235.782 62.4924 235.782C62.4619 235.782 62.4319 235.789 62.4049 235.802L61.8744 236.091C61.8336 236.096 61.8277 236.161 61.8744 236.183Z" fill="#3A2C6D"/>
<path d="M62.8597 236.716L66.5502 238.702C66.5775 238.714 66.6074 238.72 66.6376 238.72C66.6679 238.72 66.6977 238.714 66.7251 238.702L67.2556 238.414C67.3081 238.386 67.3139 238.343 67.2556 238.321L63.5652 236.33C63.5382 236.317 63.5082 236.31 63.4777 236.31C63.4472 236.31 63.4172 236.317 63.3903 236.33L62.8597 236.613C62.8189 236.64 62.8131 236.689 62.8597 236.716Z" fill="#3A2C6D"/>
<path d="M69.4769 238.637L70.0599 238.936C70.0869 238.949 70.1169 238.956 70.1474 238.956C70.1779 238.956 70.2079 238.949 70.2348 238.936L70.7654 238.647C70.8178 238.62 70.8237 238.577 70.7654 238.555L70.2115 238.256C70.1842 238.244 70.1543 238.237 70.1241 238.237C70.0938 238.237 70.0639 238.244 70.0366 238.256L69.5061 238.544C69.4361 238.571 69.4303 238.615 69.4769 238.637Z" fill="#3A2C6D"/>
<path d="M68.6898 238.212L69.2728 238.511C69.3008 238.525 69.3318 238.532 69.3632 238.532C69.3946 238.532 69.4256 238.525 69.4536 238.511L69.9783 238.229C70.0307 238.201 70.0366 238.158 69.9783 238.131L69.3953 237.831C69.3683 237.818 69.3383 237.811 69.3078 237.811C69.2773 237.811 69.2473 237.818 69.2204 237.831L68.6898 238.114C68.649 238.147 68.6432 238.19 68.6898 238.212Z" fill="#3A2C6D"/>
<path d="M67.9086 237.793L68.4916 238.093C68.5185 238.106 68.5485 238.113 68.579 238.113C68.6095 238.113 68.6395 238.106 68.6665 238.093L69.197 237.81C69.2495 237.782 69.2553 237.739 69.197 237.717L68.614 237.418C68.5871 237.405 68.557 237.398 68.5266 237.398C68.4961 237.398 68.466 237.405 68.4391 237.418L67.9086 237.701C67.8678 237.728 67.8619 237.766 67.9086 237.793Z" fill="#3A2C6D"/>
<path d="M67.1215 237.369L67.7045 237.668C67.7314 237.682 67.7614 237.689 67.7919 237.689C67.8224 237.689 67.8524 237.682 67.8794 237.668L68.4099 237.38C68.4624 237.353 68.4682 237.309 68.4099 237.287L67.8269 236.988C67.8 236.975 67.7699 236.968 67.7394 236.968C67.709 236.968 67.6789 236.975 67.652 236.988L67.1215 237.277C67.0806 237.304 67.0748 237.347 67.1215 237.369Z" fill="#3A2C6D"/>
<path d="M66.3346 236.945L66.9176 237.244C66.9445 237.257 66.9745 237.264 67.005 237.264C67.0355 237.264 67.0655 237.257 67.0925 237.244L67.623 236.961C67.6755 236.928 67.6813 236.89 67.623 236.863L67.04 236.564C67.0117 236.552 66.9808 236.545 66.9496 236.545C66.9184 236.545 66.8876 236.552 66.8593 236.564L66.3287 236.852C66.2996 236.879 66.2938 236.923 66.3346 236.945Z" fill="#3A2C6D"/>
<path d="M65.5533 236.526L66.1363 236.825C66.1633 236.838 66.1933 236.845 66.2238 236.845C66.2543 236.845 66.2843 236.838 66.3112 236.825L66.8418 236.542C66.8943 236.515 66.9001 236.471 66.8418 236.444L66.2588 236.145C66.2314 236.133 66.2016 236.127 66.1713 236.127C66.1411 236.127 66.1112 236.133 66.0839 236.145L65.5533 236.428C65.5125 236.455 65.5067 236.499 65.5533 236.526Z" fill="#3A2C6D"/>
<path d="M64.7662 236.096L65.3492 236.395C65.3775 236.407 65.4083 236.414 65.4395 236.414C65.4707 236.414 65.5016 236.407 65.5299 236.395L66.0546 236.107C66.1071 236.107 66.1129 236.036 66.0546 236.014L65.4716 235.715C65.4447 235.702 65.4146 235.695 65.3842 235.695C65.3537 235.695 65.3236 235.702 65.2967 235.715L64.7662 235.998C64.7137 236.036 64.7137 236.096 64.7662 236.096Z" fill="#3A2C6D"/>
<path d="M63.985 235.677L64.568 235.976C64.5949 235.99 64.6249 235.997 64.6554 235.997C64.6859 235.997 64.716 235.99 64.7429 235.976L65.2734 235.688C65.3259 235.661 65.3317 235.617 65.2734 235.596L64.6904 235.296C64.6631 235.284 64.6332 235.278 64.603 235.278C64.5727 235.278 64.5428 235.284 64.5155 235.296L63.985 235.585C63.9442 235.612 63.9383 235.655 63.985 235.677Z" fill="#3A2C6D"/>
<path d="M63.1978 235.253L63.7516 235.552C63.7786 235.565 63.8086 235.572 63.8391 235.572C63.8696 235.572 63.8996 235.565 63.9265 235.552L64.4571 235.269C64.5095 235.242 64.5154 235.198 64.4571 235.171L63.8741 234.872C63.8471 234.859 63.8171 234.852 63.7866 234.852C63.7561 234.852 63.7261 234.859 63.6992 234.872L63.1686 235.155C63.157 235.188 63.1511 235.231 63.1978 235.253Z" fill="#3A2C6D"/>
<path d="M62.4108 234.834L62.9938 235.133C63.0217 235.147 63.0527 235.154 63.0841 235.154C63.1155 235.154 63.1465 235.147 63.1745 235.133L63.705 234.85C63.7575 234.823 63.7633 234.78 63.705 234.758L63.1512 234.459C63.1232 234.445 63.0922 234.438 63.0608 234.438C63.0294 234.438 62.9984 234.445 62.9704 234.459L62.4399 234.742C62.3816 234.763 62.3816 234.807 62.4108 234.834Z" fill="#3A2C6D"/>
<path d="M61.6295 234.41L62.2125 234.709C62.2395 234.722 62.2695 234.729 62.3 234.729C62.3305 234.729 62.3605 234.722 62.3874 234.709L62.918 234.421C62.9704 234.393 62.9763 234.35 62.918 234.328L62.3349 234.029C62.308 234.016 62.278 234.009 62.2475 234.009C62.217 234.009 62.187 234.016 62.16 234.029L61.6295 234.317C61.5887 234.344 61.5829 234.388 61.6295 234.41Z" fill="#3A2C6D"/>
<path d="M60.8424 233.985L61.4254 234.285C61.4534 234.298 61.4844 234.305 61.5158 234.305C61.5472 234.305 61.5782 234.298 61.6061 234.285L62.1308 234.002C62.1833 233.969 62.1891 233.931 62.1308 233.904L61.5478 233.605C61.5205 233.592 61.4906 233.586 61.4604 233.586C61.4301 233.586 61.4003 233.592 61.3729 233.605L60.8424 233.893C60.8016 233.92 60.7958 233.964 60.8424 233.985Z" fill="#3A2C6D"/>
<path d="M70.2582 239.061L71.4242 239.681C71.4515 239.693 71.4814 239.699 71.5117 239.699C71.5419 239.699 71.5718 239.693 71.5991 239.681L72.1297 239.398C72.1821 239.371 72.188 239.327 72.1297 239.3L70.9636 238.685C70.9357 238.672 70.9047 238.665 70.8733 238.665C70.8418 238.665 70.8109 238.672 70.7829 238.685L70.2582 238.968C70.2232 238.996 70.2174 239.034 70.2582 239.061Z" fill="#3A2C6D"/>
<path d="M69.1039 239.257L69.6869 239.556C69.7138 239.569 69.7438 239.576 69.7743 239.576C69.8048 239.576 69.8348 239.569 69.8618 239.556L70.3923 239.268C70.4448 239.24 70.4506 239.197 70.3923 239.175L69.8385 238.876C69.8111 238.864 69.7813 238.858 69.751 238.858C69.7208 238.858 69.6909 238.864 69.6636 238.876L69.133 239.164C69.0631 239.191 69.0572 239.235 69.1039 239.257Z" fill="#3A2C6D"/>
<path d="M68.3168 238.816L68.8998 239.115C68.9267 239.129 68.9568 239.136 68.9872 239.136C69.0177 239.136 69.0478 239.129 69.0747 239.115L69.6052 238.832C69.6577 238.805 69.6635 238.762 69.6052 238.734L69.0222 238.435C68.9943 238.422 68.9633 238.415 68.9319 238.415C68.9004 238.415 68.8695 238.422 68.8415 238.435L68.3168 238.718C68.2818 238.767 68.276 238.816 68.3168 238.816Z" fill="#3A2C6D"/>
<path d="M67.5355 238.414L68.1185 238.713C68.1455 238.726 68.1755 238.733 68.206 238.733C68.2365 238.733 68.2665 238.726 68.2934 238.713L68.824 238.43C68.8764 238.43 68.8823 238.359 68.824 238.337L68.241 238.038C68.214 238.025 68.184 238.018 68.1535 238.018C68.123 238.018 68.093 238.025 68.0661 238.038L67.5355 238.321C67.4947 238.343 67.4889 238.386 67.5355 238.414Z" fill="#3A2C6D"/>
<path d="M66.7484 237.989L67.3314 238.288C67.3594 238.302 67.3904 238.309 67.4218 238.309C67.4532 238.309 67.4842 238.302 67.5121 238.288L68.0427 238C68.0893 237.973 68.0951 237.929 68.0427 237.908L67.4597 237.608C67.4317 237.595 67.4007 237.588 67.3693 237.588C67.3379 237.588 67.3069 237.595 67.2789 237.608L66.7484 237.897C66.7076 237.924 66.7018 237.967 66.7484 237.989Z" fill="#3A2C6D"/>
<path d="M65.9671 237.565L66.5209 237.864C66.5478 237.877 66.5779 237.884 66.6084 237.884C66.6388 237.884 66.6689 237.877 66.6958 237.864L67.2263 237.581C67.2788 237.549 67.2846 237.51 67.2263 237.483L66.6433 237.184C66.616 237.172 66.5861 237.166 66.5559 237.166C66.5256 237.166 66.4958 237.172 66.4684 237.184L65.9379 237.472C65.9262 237.5 65.9204 237.543 65.9671 237.565Z" fill="#3A2C6D"/>
<path d="M65.18 237.146L65.7631 237.445C65.791 237.459 65.822 237.466 65.8534 237.466C65.8848 237.466 65.9158 237.459 65.9438 237.445L66.4685 237.162C66.521 237.135 66.5268 237.092 66.4685 237.064L65.8855 236.765C65.858 236.753 65.8282 236.747 65.798 236.747C65.7678 236.747 65.738 236.753 65.7106 236.765L65.18 237.048C65.1392 237.075 65.1334 237.119 65.18 237.146Z" fill="#3A2C6D"/>
<path d="M64.393 236.722L64.976 237.021C65.0033 237.033 65.0332 237.039 65.0634 237.039C65.0937 237.039 65.1235 237.033 65.1509 237.021L65.6814 236.733C65.7339 236.705 65.7397 236.662 65.6814 236.64L65.0984 236.341C65.0704 236.327 65.0395 236.32 65.008 236.32C64.9766 236.32 64.9456 236.327 64.9177 236.341L64.393 236.624C64.358 236.64 64.3522 236.694 64.393 236.722Z" fill="#3A2C6D"/>
<path d="M63.6118 236.297L64.1948 236.597C64.2218 236.61 64.2518 236.617 64.2823 236.617C64.3128 236.617 64.3428 236.61 64.3697 236.597L64.9003 236.314C64.9527 236.281 64.9586 236.243 64.9003 236.216L64.3173 235.917C64.2899 235.904 64.2601 235.898 64.2298 235.898C64.1996 235.898 64.1697 235.904 64.1424 235.917L63.6118 236.205C63.5477 236.232 63.5477 236.276 63.6118 236.297Z" fill="#3A2C6D"/>
<path d="M62.8248 235.878L63.3786 236.178C63.4071 236.189 63.4379 236.196 63.469 236.196C63.5001 236.196 63.5309 236.189 63.5594 236.178L64.0899 235.895C64.1424 235.868 64.1482 235.824 64.0899 235.797L63.5069 235.498C63.4789 235.484 63.448 235.477 63.4165 235.477C63.3851 235.477 63.3541 235.484 63.3262 235.498L62.7956 235.781C62.7898 235.808 62.784 235.851 62.8248 235.878Z" fill="#3A2C6D"/>
<path d="M62.0436 235.454L62.6266 235.753C62.6539 235.765 62.6838 235.772 62.714 235.772C62.7443 235.772 62.7741 235.765 62.8015 235.753L63.332 235.465C63.3845 235.438 63.3903 235.394 63.332 235.373L62.7782 235.073C62.7512 235.06 62.7212 235.053 62.6907 235.053C62.6602 235.053 62.6302 235.06 62.6033 235.073L62.0727 235.356C62.0028 235.389 61.9969 235.427 62.0436 235.454Z" fill="#3A2C6D"/>
<path d="M61.2564 235.008L61.8394 235.307C61.8674 235.321 61.8984 235.328 61.9298 235.328C61.9612 235.328 61.9922 235.321 62.0202 235.307L62.5449 235.019C62.5974 234.992 62.6032 234.948 62.5449 234.926L61.9619 234.627C61.9345 234.615 61.9047 234.609 61.8744 234.609C61.8442 234.609 61.8143 234.615 61.787 234.627L61.2564 234.916C61.2156 234.965 61.2156 235.008 61.2564 235.008Z" fill="#3A2C6D"/>
<path d="M59.5016 234.083L61.0291 234.905C61.056 234.918 61.086 234.925 61.1165 234.925C61.147 234.925 61.177 234.918 61.204 234.905L61.7345 234.622C61.787 234.622 61.7928 234.551 61.7345 234.524L60.207 233.702C60.1797 233.69 60.1498 233.684 60.1196 233.684C60.0893 233.684 60.0594 233.69 60.0321 233.702L59.5016 233.991C59.4666 234.018 59.4666 234.061 59.5016 234.083Z" fill="#3A2C6D"/>
<path d="M69.8909 239.681L70.643 240.089C70.6714 240.101 70.7022 240.108 70.7334 240.108C70.7646 240.108 70.7954 240.101 70.8238 240.089L71.3485 239.801C71.4009 239.773 71.4068 239.73 71.3485 239.708L70.5906 239.3C70.5636 239.287 70.5336 239.28 70.5031 239.28C70.4726 239.28 70.4426 239.287 70.4157 239.3L69.8851 239.583C69.8501 239.616 69.8443 239.654 69.8909 239.681Z" fill="#3A2C6D"/>
<path d="M75.6394 238.223L63.0464 231.439V222.191L63.1455 221.985L63.2504 221.936C63.3831 221.866 63.5326 221.83 63.6848 221.83C63.8369 221.83 63.9865 221.866 64.1191 221.936L75.6394 228.148C75.7723 228.219 75.8829 228.321 75.9597 228.444C76.0365 228.567 76.0769 228.707 76.0766 228.85V237.516C75.995 237.973 75.9075 238.082 75.6394 238.223Z" fill="#E5E5E5"/>
<path d="M74.485 229.269L63.0464 222.496V222.186L63.1455 221.979L63.2504 221.93C63.3831 221.861 63.5326 221.824 63.6848 221.824C63.8369 221.824 63.9865 221.861 64.1191 221.93L75.6394 228.143C75.7803 228.216 75.8957 228.325 75.9717 228.458L74.485 229.269Z" fill="#E5E5E5"/>
<path d="M63.3379 221.99L75.4295 228.518C75.4934 228.552 75.5465 228.601 75.5834 228.66C75.6203 228.72 75.6396 228.787 75.6394 228.855V238.234L63.0464 231.45V222.148C63.0457 222.116 63.0542 222.084 63.071 222.056C63.0879 222.028 63.1125 222.005 63.1423 221.989C63.172 221.973 63.2059 221.964 63.2403 221.964C63.2747 221.965 63.3084 221.974 63.3379 221.99Z" fill="#DCEEFF"/>
<path d="M63.3379 221.99L75.4295 228.518C75.4934 228.552 75.5465 228.601 75.5834 228.66C75.6203 228.72 75.6396 228.787 75.6394 228.855V238.234L63.0464 231.45V222.148C63.0457 222.116 63.0542 222.084 63.071 222.056C63.0879 222.028 63.1125 222.005 63.1423 221.989C63.172 221.973 63.2059 221.964 63.2403 221.964C63.2747 221.965 63.3084 221.974 63.3379 221.99Z" fill="#F4F4F4"/>
<path d="M75.6394 238.223V237.891L63.0464 231.102V231.439L75.6394 238.223Z" fill="#DBDBDB"/>
<path d="M63.3728 230.95V222.474L63.5302 222.556V230.874L63.3728 230.95Z" fill="#1E3779"/>
<path d="M63.5303 222.556V230.874L75.2371 237.168V228.866L63.5303 222.556Z" fill="#3A2C6D"/>
<path d="M63.3728 230.95L75.237 237.336V237.168L63.5302 230.874L63.3728 230.95Z" fill="#031F60"/>
<path d="M49.8122 220.521C49.5149 221.218 50.2786 222.066 52.3075 222.665C54.3363 223.263 54.5229 222.496 54.5229 222.496C55.8748 223.059 57.1924 223.691 58.4699 224.389C59.6883 225.189 60.2189 227.484 60.3879 231.369C60.5803 235.862 60.5978 242.532 60.4346 243.679C60.4346 243.679 58.1609 245.801 55.2458 245.578C52.3308 245.355 47.4277 242.945 46.2384 241.09C46.2384 237.146 46.7631 236.504 46.0809 234.236C44.5127 229.04 43.6906 226.913 44.4485 223.459C45.0782 220.614 45.9585 220.26 47.1595 220.287C48.0476 220.321 48.9331 220.399 49.8122 220.521Z" fill="#F4F4F4"/>
<path d="M65.1859 236.189C62.7898 236.733 62.2301 235.345 61.9153 234.176C61.1574 231.358 60.7493 228.806 60.1663 227.207C59.4958 225.319 58.7962 225.031 57.8342 224.65C56.6682 224.22 55.6829 225.129 56.0852 227.533C56.5554 230.323 57.289 233.068 58.2773 235.737C58.5746 236.618 59.2451 238.18 60.242 238.93C61.478 239.861 63.332 239.822 66.1479 239.17C67.3139 238.892 68.6607 238.223 70.9286 237.233C71.5116 236.972 72.013 236.792 73.179 236.286C74.3547 235.8 75.3854 235.053 76.1815 234.11C76.7936 233.284 76.8753 232.897 76.7645 232.707C76.6537 232.517 76.3331 232.522 76.0066 232.87C75.5273 233.462 74.9342 233.966 74.2575 234.355C74.2575 234.355 75.0155 233.632 75.4236 233.158C75.7936 232.74 76.0978 232.275 76.3272 231.777C76.5488 231.293 76.0999 230.64 75.7442 230.982C75.3886 231.325 75.2428 231.679 74.6248 232.37C74.3007 232.739 73.9286 233.07 73.5171 233.354C73.9012 232.87 74.2424 232.356 74.5374 231.82C74.8039 231.404 74.9336 230.923 74.9105 230.438C74.9105 230.183 74.5141 229.894 74.1526 230.362C73.8066 231.02 73.3759 231.635 72.87 232.196C72.322 232.74 71.8614 233.028 71.8439 232.881C71.8264 232.734 72.1762 232.446 72.3686 231.831C72.561 231.216 72.3686 230.558 72.0071 230.487C71.6457 230.417 71.7098 230.438 71.4241 231.031C71.0204 231.624 70.6582 232.24 70.3397 232.876C70.1533 233.468 69.8151 234.01 69.3545 234.453C68.7598 235.008 67.4597 235.655 65.1859 236.189Z" fill="#FFCEA9"/>
<path d="M56.9422 224.264C58.5397 224.046 59.6649 224.716 60.3703 226.984C61.0758 229.253 61.5713 231.097 61.5713 231.097C60.9329 231.937 59.9766 232.52 58.8953 232.729C56.983 233.158 56.2951 232.31 56.2951 232.31C56.2951 232.31 55.7646 229.938 55.4381 228.328C55.1116 226.717 54.9658 224.536 56.9422 224.264Z" fill="#EDEDED"/>
<path d="M57.7178 212.704C57.7178 212.704 60.2423 209.124 54.8028 208.396C50.8558 207.852 48.3256 210.234 48.0283 212.796C47.7484 215.25 49.3692 217.796 50.5352 218.808C51.6842 219.075 52.8986 218.938 53.9458 218.421C54.0112 217.754 54.0365 217.084 54.0216 216.414C54.0216 216.414 52.0802 212.639 57.7178 212.704Z" fill="#3A2C6D"/>
<path d="M68.6725 257.997V247.248L59.5251 252.231L63.0465 259.031L68.6725 257.997Z" fill="#C4C7D6"/>
<path d="M62.6792 247.868L66.1889 245.964L68.6725 247.308L65.0346 249.234L62.6792 247.868Z" fill="#D6D8E5"/>
<path opacity="0.4" d="M18.5106 188.023L2.91515 179.487C1.16613 178.519 1.36435 176.827 3.41071 175.712L11.3396 171.36C13.386 170.272 16.4759 170.125 18.2482 171.093L33.867 179.629C35.616 180.592 35.412 182.284 33.3715 183.404L25.4426 187.756C23.3729 188.871 20.2771 188.991 18.5106 188.023Z" fill="#D6D8E5"/>
<path d="M37.8956 179.607V158.973L4.53589 155.421V176.185C4.54227 176.541 4.65479 176.887 4.86079 177.186C5.06678 177.485 5.35808 177.724 5.7019 177.877L21.3382 186.412C23.0872 187.381 26.2063 187.261 28.2468 186.14L36.1757 181.788C37.3417 181.157 37.9247 180.347 37.8664 179.612L37.8956 179.607Z" fill="#D6D8E5"/>
<path d="M37.8606 161.225V158.973H35.2954L21.0583 151.183C19.3093 150.215 16.1902 150.34 14.1497 151.455L6.22078 155.807C6.07767 155.883 5.93946 155.966 5.80685 156.057L4.53589 155.421C4.53589 155.421 4.53589 157.798 4.53589 157.88C4.54467 158.234 4.65823 158.579 4.86401 158.876C5.06979 159.174 5.35978 159.413 5.7019 159.566L21.3382 168.096C23.0872 169.064 26.2063 168.939 28.2468 167.824L36.1757 163.472C37.3417 162.825 37.9247 161.987 37.8606 161.204V161.225Z" fill="#EDF0F9"/>
<path d="M21.3382 165.648L5.72521 157.113C3.97619 156.144 4.17441 154.452 6.22077 153.337L14.1497 148.985C16.1902 147.897 19.286 147.745 21.0583 148.713L36.6771 157.249C38.4261 158.217 38.2221 159.909 36.1757 161.024L28.2468 165.376C26.2354 166.491 23.1105 166.616 21.3382 165.648Z" fill="#E2E5F2"/>
<path d="M17.8225 153.995V153.174H17.2919L17.1229 153.076C16.6012 152.824 16.0224 152.693 15.4351 152.693C14.8477 152.693 14.2689 152.824 13.7472 153.076C13.6476 153.129 13.5538 153.191 13.4674 153.261L13.0535 153.174V153.995C13.0674 154.194 13.1394 154.385 13.2618 154.548C13.3841 154.711 13.552 154.84 13.7472 154.92C14.2698 155.17 14.8482 155.3 15.4351 155.3C16.0219 155.3 16.6003 155.17 17.1229 154.92C17.3162 154.837 17.4827 154.708 17.6055 154.545C17.7283 154.383 17.8032 154.193 17.8225 153.995Z" fill="#6E48E5"/>
<path d="M15.438 154.48C16.7549 154.48 17.8225 153.895 17.8225 153.174C17.8225 152.453 16.7549 151.868 15.438 151.868C14.121 151.868 13.0535 152.453 13.0535 153.174C13.0535 153.895 14.121 154.48 15.438 154.48Z" fill="#8C50FF"/>
<path d="M23.5827 157.091V156.269H23.0522L22.8889 156.172C22.3673 155.92 21.7885 155.788 21.2011 155.788C20.6138 155.788 20.035 155.92 19.5133 156.172C19.4109 156.223 19.3151 156.285 19.2277 156.356L18.8137 156.269V157.091C18.833 157.289 18.9079 157.478 19.0307 157.641C19.1535 157.803 19.32 157.932 19.5133 158.016C20.0358 158.265 20.6143 158.395 21.2011 158.395C21.788 158.395 22.3664 158.265 22.8889 158.016C23.0842 157.935 23.2521 157.807 23.3744 157.644C23.4968 157.481 23.5688 157.289 23.5827 157.091Z" fill="#6E48E5"/>
<path d="M21.1982 157.575C22.5151 157.575 23.5827 156.991 23.5827 156.269C23.5827 155.548 22.5151 154.964 21.1982 154.964C19.8813 154.964 18.8137 155.548 18.8137 156.269C18.8137 156.991 19.8813 157.575 21.1982 157.575Z" fill="#8C50FF"/>
<path d="M29.3544 160.398V159.577H28.8181L28.6548 159.479C28.1331 159.227 27.5544 159.096 26.967 159.096C26.3797 159.096 25.8009 159.227 25.2792 159.479C25.1781 159.532 25.0824 159.594 24.9935 159.664L24.5796 159.577V160.398C24.5977 160.597 24.6721 160.787 24.7951 160.949C24.918 161.112 25.0851 161.241 25.2792 161.323C25.8009 161.575 26.3797 161.706 26.967 161.706C27.5544 161.706 28.1331 161.575 28.6548 161.323C28.8489 161.241 29.016 161.112 29.139 160.949C29.2619 160.787 29.3363 160.597 29.3544 160.398Z" fill="#6E48E5"/>
<path d="M26.9641 160.883C28.281 160.883 29.3486 160.298 29.3486 159.577C29.3486 158.856 28.281 158.271 26.9641 158.271C25.6472 158.271 24.5796 158.856 24.5796 159.577C24.5796 160.298 25.6472 160.883 26.9641 160.883Z" fill="#8C50FF"/>
</svg>
