<svg width="1609" height="122" viewBox="0 0 1609 122" fill="none" xmlns="http://www.w3.org/2000/svg">
<path d="M30.48 47.592C30.48 51.944 29.7973 55.1867 28.432 57.32C27.0667 59.4533 24.8907 60.9893 21.904 61.928C24.8907 62.8667 27.0667 64.4027 28.432 66.536C29.7973 68.6693 30.48 71.912 30.48 76.264V96.744C30.48 99.816 31.248 102.163 32.784 103.784C34.4053 105.405 36.752 106.216 39.824 106.216H42.128V121.832H34.704C26.768 121.832 20.752 119.869 16.656 115.944C12.56 112.019 10.512 106.344 10.512 98.92V75.752C10.512 73.7893 10 72.296 8.976 71.272C8.03733 70.248 6.672 69.736 4.88 69.736H0.656V54.12H4.88C6.672 54.12 8.03733 53.608 8.976 52.584C10 51.56 10.512 50.0667 10.512 48.104V24.936C10.512 17.512 12.56 11.8373 16.656 7.91199C20.752 3.98666 26.768 2.02399 34.704 2.02399H42.128V17.64H39.824C36.752 17.64 34.4053 18.4507 32.784 20.072C31.248 21.6933 30.48 24.04 30.48 27.112V47.592ZM159.61 2.02399V97H140.538V89.064C135.589 95.0373 128.421 98.024 119.034 98.024C112.549 98.024 106.661 96.5733 101.37 93.672C96.1647 90.7707 92.0687 86.632 89.082 81.256C86.0953 75.88 84.602 69.6507 84.602 62.568C84.602 55.4853 86.0953 49.256 89.082 43.88C92.0687 38.504 96.1647 34.3653 101.37 31.464C106.661 28.5627 112.549 27.112 119.034 27.112C127.823 27.112 134.693 29.8853 139.642 35.432V2.02399H159.61ZM122.49 81.64C127.525 81.64 131.706 79.9333 135.034 76.52C138.362 73.0213 140.026 68.3707 140.026 62.568C140.026 56.7653 138.362 52.1573 135.034 48.744C131.706 45.2453 127.525 43.496 122.49 43.496C117.37 43.496 113.146 45.2453 109.818 48.744C106.49 52.1573 104.826 56.7653 104.826 62.568C104.826 68.3707 106.49 73.0213 109.818 76.52C113.146 79.9333 117.37 81.64 122.49 81.64ZM245.547 62.824C245.547 63.08 245.419 64.872 245.163 68.2H193.067C194.006 72.4667 196.224 75.8373 199.723 78.312C203.222 80.7867 207.574 82.024 212.779 82.024C216.363 82.024 219.52 81.512 222.251 80.488C225.067 79.3787 227.67 77.672 230.059 75.368L240.683 86.888C234.198 94.312 224.726 98.024 212.267 98.024C204.502 98.024 197.632 96.5307 191.659 93.544C185.686 90.472 181.078 86.248 177.835 80.872C174.592 75.496 172.971 69.3947 172.971 62.568C172.971 55.8267 174.55 49.768 177.707 44.392C180.95 38.9307 185.344 34.7067 190.891 31.72C196.523 28.648 202.795 27.112 209.707 27.112C216.448 27.112 222.55 28.5627 228.011 31.464C233.472 34.3653 237.739 38.5467 240.811 44.008C243.968 49.384 245.547 55.656 245.547 62.824ZM209.835 42.216C205.312 42.216 201.515 43.496 198.443 46.056C195.371 48.616 193.494 52.1147 192.811 56.552H226.731C226.048 52.2 224.171 48.744 221.099 46.184C218.027 43.5387 214.272 42.216 209.835 42.216ZM325.943 28.136L296.887 97H276.279L247.351 28.136H267.959L287.031 74.984L306.743 28.136H325.943ZM342.143 52.072C338.644 52.072 335.7 50.8773 333.311 48.488C330.922 46.0987 329.727 43.112 329.727 39.528C329.727 35.8587 330.922 32.9147 333.311 30.696C335.7 28.392 338.644 27.24 342.143 27.24C345.642 27.24 348.586 28.392 350.975 30.696C353.364 32.9147 354.559 35.8587 354.559 39.528C354.559 43.112 353.364 46.0987 350.975 48.488C348.586 50.8773 345.642 52.072 342.143 52.072ZM342.143 98.024C338.644 98.024 335.7 96.8293 333.311 94.44C330.922 92.0507 329.727 89.064 329.727 85.48C329.727 81.8107 330.922 78.8667 333.311 76.648C335.7 74.344 338.644 73.192 342.143 73.192C345.642 73.192 348.586 74.344 350.975 76.648C353.364 78.8667 354.559 81.8107 354.559 85.48C354.559 89.064 353.364 92.0507 350.975 94.44C348.586 96.8293 345.642 98.024 342.143 98.024ZM417.397 22.376C419.53 23.3147 421.194 24.7227 422.389 26.6C423.584 28.4773 424.181 30.696 424.181 33.256C424.181 36.9253 423.029 39.912 420.725 42.216C418.421 44.4347 415.477 45.544 411.893 45.544C408.309 45.544 405.322 44.392 402.933 42.088C400.629 39.784 399.477 36.84 399.477 33.256C399.477 31.5493 399.69 29.8427 400.117 28.136C400.544 26.4293 401.482 23.8693 402.933 20.456L410.357 2.02399H423.029L417.397 22.376ZM447.605 22.376C449.738 23.3147 451.402 24.7227 452.597 26.6C453.792 28.4773 454.389 30.696 454.389 33.256C454.389 36.9253 453.237 39.912 450.933 42.216C448.629 44.4347 445.685 45.544 442.101 45.544C438.517 45.544 435.53 44.392 433.141 42.088C430.837 39.784 429.685 36.84 429.685 33.256C429.685 31.5493 429.898 29.8427 430.325 28.136C430.752 26.4293 431.69 23.8693 433.141 20.456L440.565 2.02399H453.237L447.605 22.376ZM526.587 97L509.307 72.04H508.283H490.235V97H469.499V7.39999H508.283C516.219 7.39999 523.088 8.72266 528.891 11.368C534.779 14.0133 539.302 17.768 542.459 22.632C545.616 27.496 547.195 33.256 547.195 39.912C547.195 46.568 545.574 52.328 542.331 57.192C539.174 61.9707 534.651 65.64 528.763 68.2L548.859 97H526.587ZM526.203 39.912C526.203 34.8773 524.582 31.0373 521.339 28.392C518.096 25.6613 513.36 24.296 507.131 24.296H490.235V55.528H507.131C513.36 55.528 518.096 54.1627 521.339 51.432C524.582 48.7013 526.203 44.8613 526.203 39.912ZM589.367 27.112C600.034 27.112 608.226 29.672 613.943 34.792C619.66 39.8267 622.519 47.464 622.519 57.704V97H603.831V88.424C600.076 94.824 593.079 98.024 582.839 98.024C577.548 98.024 572.94 97.128 569.015 95.336C565.175 93.544 562.231 91.0693 560.183 87.912C558.135 84.7547 557.111 81.1707 557.111 77.16C557.111 70.76 559.5 65.7253 564.279 62.056C569.143 58.3867 576.61 56.552 586.679 56.552H602.551C602.551 52.2 601.228 48.872 598.583 46.568C595.938 44.1787 591.97 42.984 586.679 42.984C583.01 42.984 579.383 43.5813 575.799 44.776C572.3 45.8853 569.314 47.4213 566.839 49.384L559.671 35.432C563.426 32.7867 567.906 30.7387 573.111 29.288C578.402 27.8373 583.82 27.112 589.367 27.112ZM587.831 84.584C591.244 84.584 594.274 83.816 596.919 82.28C599.564 80.6587 601.442 78.312 602.551 75.24V68.2H588.855C580.663 68.2 576.567 70.888 576.567 76.264C576.567 78.824 577.548 80.872 579.511 82.408C581.559 83.8587 584.332 84.584 587.831 84.584ZM728.783 27.112C737.402 27.112 744.228 29.672 749.263 34.792C754.383 39.8267 756.943 47.4213 756.943 57.576V97H736.975V60.648C736.975 55.1867 735.823 51.1333 733.519 48.488C731.3 45.7573 728.1 44.392 723.919 44.392C719.226 44.392 715.514 45.928 712.783 49C710.052 51.9867 708.687 56.4667 708.687 62.44V97H688.719V60.648C688.719 49.8107 684.367 44.392 675.663 44.392C671.055 44.392 667.386 45.928 664.655 49C661.924 51.9867 660.559 56.4667 660.559 62.44V97H640.591V28.136H659.663V36.072C662.223 33.1707 665.338 30.952 669.007 29.416C672.762 27.88 676.858 27.112 681.295 27.112C686.159 27.112 690.554 28.0933 694.479 30.056C698.404 31.9333 701.562 34.7067 703.951 38.376C706.767 34.792 710.308 32.0187 714.575 30.056C718.927 28.0933 723.663 27.112 728.783 27.112ZM808.359 98.024C801.106 98.024 794.578 96.5307 788.775 93.544C783.058 90.472 778.578 86.248 775.335 80.872C772.092 75.496 770.471 69.3947 770.471 62.568C770.471 55.7413 772.092 49.64 775.335 44.264C778.578 38.888 783.058 34.7067 788.775 31.72C794.578 28.648 801.106 27.112 808.359 27.112C815.612 27.112 822.098 28.648 827.815 31.72C833.532 34.7067 838.012 38.888 841.255 44.264C844.498 49.64 846.119 55.7413 846.119 62.568C846.119 69.3947 844.498 75.496 841.255 80.872C838.012 86.248 833.532 90.472 827.815 93.544C822.098 96.5307 815.612 98.024 808.359 98.024ZM808.359 81.64C813.479 81.64 817.66 79.9333 820.903 76.52C824.231 73.0213 825.895 68.3707 825.895 62.568C825.895 56.7653 824.231 52.1573 820.903 48.744C817.66 45.2453 813.479 43.496 808.359 43.496C803.239 43.496 799.015 45.2453 795.687 48.744C792.359 52.1573 790.695 56.7653 790.695 62.568C790.695 68.3707 792.359 73.0213 795.687 76.52C799.015 79.9333 803.239 81.64 808.359 81.64ZM901.322 27.112C909.855 27.112 916.725 29.672 921.93 34.792C927.221 39.912 929.866 47.5067 929.866 57.576V97H909.898V60.648C909.898 55.1867 908.703 51.1333 906.314 48.488C903.925 45.7573 900.469 44.392 895.946 44.392C890.911 44.392 886.901 45.9707 883.914 49.128C880.927 52.2 879.434 56.808 879.434 62.952V97H859.466V28.136H878.538V36.2C881.183 33.2987 884.469 31.08 888.394 29.544C892.319 27.9227 896.629 27.112 901.322 27.112ZM1018.86 2.02399V97H999.788V89.064C994.839 95.0373 987.671 98.024 978.284 98.024C971.799 98.024 965.911 96.5733 960.62 93.672C955.415 90.7707 951.319 86.632 948.332 81.256C945.345 75.88 943.852 69.6507 943.852 62.568C943.852 55.4853 945.345 49.256 948.332 43.88C951.319 38.504 955.415 34.3653 960.62 31.464C965.911 28.5627 971.799 27.112 978.284 27.112C987.073 27.112 993.943 29.8853 998.892 35.432V2.02399H1018.86ZM981.74 81.64C986.775 81.64 990.956 79.9333 994.284 76.52C997.612 73.0213 999.276 68.3707 999.276 62.568C999.276 56.7653 997.612 52.1573 994.284 48.744C990.956 45.2453 986.775 43.496 981.74 43.496C976.62 43.496 972.396 45.2453 969.068 48.744C965.74 52.1573 964.076 56.7653 964.076 62.568C964.076 68.3707 965.74 73.0213 969.068 76.52C972.396 79.9333 976.62 81.64 981.74 81.64ZM1095.74 24.04V47.72H1137.21V64.36H1095.74V97H1075V7.39999H1142.71V24.04H1095.74ZM1181.24 27.112C1191.91 27.112 1200.1 29.672 1205.82 34.792C1211.54 39.8267 1214.39 47.464 1214.39 57.704V97H1195.71V88.424C1191.95 94.824 1184.95 98.024 1174.71 98.024C1169.42 98.024 1164.82 97.128 1160.89 95.336C1157.05 93.544 1154.11 91.0693 1152.06 87.912C1150.01 84.7547 1148.99 81.1707 1148.99 77.16C1148.99 70.76 1151.38 65.7253 1156.15 62.056C1161.02 58.3867 1168.48 56.552 1178.55 56.552H1194.43C1194.43 52.2 1193.1 48.872 1190.46 46.568C1187.81 44.1787 1183.84 42.984 1178.55 42.984C1174.88 42.984 1171.26 43.5813 1167.67 44.776C1164.18 45.8853 1161.19 47.4213 1158.71 49.384L1151.55 35.432C1155.3 32.7867 1159.78 30.7387 1164.99 29.288C1170.28 27.8373 1175.7 27.112 1181.24 27.112ZM1179.71 84.584C1183.12 84.584 1186.15 83.816 1188.79 82.28C1191.44 80.6587 1193.32 78.312 1194.43 75.24V68.2H1180.73C1172.54 68.2 1168.44 70.888 1168.44 76.264C1168.44 78.824 1169.42 80.872 1171.39 82.408C1173.43 83.8587 1176.21 84.584 1179.71 84.584ZM1232.47 2.02399H1252.43V97H1232.47V2.02399ZM1304.25 98.024C1296.91 98.024 1290.29 96.5307 1284.41 93.544C1278.6 90.472 1274.04 86.248 1270.71 80.872C1267.47 75.496 1265.85 69.3947 1265.85 62.568C1265.85 55.7413 1267.47 49.64 1270.71 44.264C1274.04 38.888 1278.6 34.7067 1284.41 31.72C1290.29 28.648 1296.91 27.112 1304.25 27.112C1311.5 27.112 1317.81 28.648 1323.19 31.72C1328.65 34.7067 1332.62 39.016 1335.09 44.648L1319.61 52.968C1316.02 46.6533 1310.86 43.496 1304.12 43.496C1298.91 43.496 1294.6 45.2027 1291.19 48.616C1287.78 52.0293 1286.07 56.68 1286.07 62.568C1286.07 68.456 1287.78 73.1067 1291.19 76.52C1294.6 79.9333 1298.91 81.64 1304.12 81.64C1310.94 81.64 1316.11 78.4827 1319.61 72.168L1335.09 80.616C1332.62 86.0773 1328.65 90.344 1323.19 93.416C1317.81 96.488 1311.5 98.024 1304.25 98.024ZM1374.37 27.112C1385.03 27.112 1393.23 29.672 1398.94 34.792C1404.66 39.8267 1407.52 47.464 1407.52 57.704V97H1388.83V88.424C1385.08 94.824 1378.08 98.024 1367.84 98.024C1362.55 98.024 1357.94 97.128 1354.02 95.336C1350.18 93.544 1347.23 91.0693 1345.18 87.912C1343.14 84.7547 1342.11 81.1707 1342.11 77.16C1342.11 70.76 1344.5 65.7253 1349.28 62.056C1354.14 58.3867 1361.61 56.552 1371.68 56.552H1387.55C1387.55 52.2 1386.23 48.872 1383.58 46.568C1380.94 44.1787 1376.97 42.984 1371.68 42.984C1368.01 42.984 1364.38 43.5813 1360.8 44.776C1357.3 45.8853 1354.31 47.4213 1351.84 49.384L1344.67 35.432C1348.43 32.7867 1352.91 30.7387 1358.11 29.288C1363.4 27.8373 1368.82 27.112 1374.37 27.112ZM1372.83 84.584C1376.24 84.584 1379.27 83.816 1381.92 82.28C1384.56 80.6587 1386.44 78.312 1387.55 75.24V68.2H1373.86C1365.66 68.2 1361.57 70.888 1361.57 76.264C1361.57 78.824 1362.55 80.872 1364.51 82.408C1366.56 83.8587 1369.33 84.584 1372.83 84.584ZM1386.02 19.688C1383.71 19.688 1381.66 19.2613 1379.87 18.408C1378.16 17.4693 1376.24 16.232 1374.11 14.696C1372.75 13.672 1371.59 12.904 1370.66 12.392C1369.8 11.88 1368.95 11.624 1368.1 11.624C1366.3 11.624 1364.85 12.264 1363.74 13.544C1362.63 14.7387 1362.04 16.488 1361.95 18.792H1351.84C1352.01 13.0747 1353.42 8.552 1356.06 5.224C1358.79 1.81066 1362.38 0.103996 1366.82 0.103996C1369.03 0.103996 1371 0.573329 1372.7 1.51199C1374.5 2.36533 1376.5 3.60266 1378.72 5.224C1380.08 6.248 1381.19 7.01599 1382.05 7.52799C1382.99 8.04 1383.88 8.296 1384.74 8.296C1386.44 8.296 1387.85 7.69866 1388.96 6.504C1390.15 5.22399 1390.79 3.51733 1390.88 1.384H1400.99C1400.82 6.93066 1399.37 11.368 1396.64 14.696C1393.99 18.024 1390.45 19.688 1386.02 19.688ZM1459.11 98.024C1451.86 98.024 1445.33 96.5307 1439.53 93.544C1433.81 90.472 1429.33 86.248 1426.09 80.872C1422.84 75.496 1421.22 69.3947 1421.22 62.568C1421.22 55.7413 1422.84 49.64 1426.09 44.264C1429.33 38.888 1433.81 34.7067 1439.53 31.72C1445.33 28.648 1451.86 27.112 1459.11 27.112C1466.36 27.112 1472.85 28.648 1478.57 31.72C1484.28 34.7067 1488.76 38.888 1492.01 44.264C1495.25 49.64 1496.87 55.7413 1496.87 62.568C1496.87 69.3947 1495.25 75.496 1492.01 80.872C1488.76 86.248 1484.28 90.472 1478.57 93.544C1472.85 96.5307 1466.36 98.024 1459.11 98.024ZM1459.11 81.64C1464.23 81.64 1468.41 79.9333 1471.65 76.52C1474.98 73.0213 1476.65 68.3707 1476.65 62.568C1476.65 56.7653 1474.98 52.1573 1471.65 48.744C1468.41 45.2453 1464.23 43.496 1459.11 43.496C1453.99 43.496 1449.77 45.2453 1446.44 48.744C1443.11 52.1573 1441.45 56.7653 1441.45 62.568C1441.45 68.3707 1443.11 73.0213 1446.44 76.52C1449.77 79.9333 1453.99 81.64 1459.11 81.64ZM1518.02 0.999992C1521.61 0.999992 1524.55 2.15199 1526.85 4.45599C1529.16 6.67466 1530.31 9.61866 1530.31 13.288C1530.31 14.9947 1530.1 16.7013 1529.67 18.408C1529.24 20.1147 1528.35 22.6747 1526.98 26.088L1519.56 44.52H1506.89L1512.39 24.296C1510.26 23.3573 1508.59 21.9493 1507.4 20.072C1506.2 18.1947 1505.61 15.9333 1505.61 13.288C1505.61 9.61866 1506.76 6.67466 1509.06 4.45599C1511.45 2.15199 1514.44 0.999992 1518.02 0.999992ZM1548.23 0.999992C1551.81 0.999992 1554.76 2.15199 1557.06 4.45599C1559.37 6.67466 1560.52 9.61866 1560.52 13.288C1560.52 14.9947 1560.3 16.7013 1559.88 18.408C1559.45 20.1147 1558.55 22.6747 1557.19 26.088L1549.77 44.52H1537.09L1542.6 24.296C1540.46 23.3573 1538.8 21.9493 1537.61 20.072C1536.41 18.1947 1535.81 15.9333 1535.81 13.288C1535.81 9.61866 1536.97 6.67466 1539.27 4.45599C1541.66 2.15199 1544.65 0.999992 1548.23 0.999992ZM1608.27 54.12V69.736H1604.04C1602.25 69.736 1600.84 70.248 1599.82 71.272C1598.88 72.296 1598.41 73.7893 1598.41 75.752V98.92C1598.41 106.344 1596.36 112.019 1592.27 115.944C1588.17 119.869 1582.16 121.832 1574.22 121.832H1566.8V106.216H1569.1C1572.17 106.216 1574.48 105.405 1576.01 103.784C1577.63 102.163 1578.44 99.816 1578.44 96.744V76.264C1578.44 71.912 1579.13 68.6693 1580.49 66.536C1581.86 64.4027 1584.03 62.8667 1587.02 61.928C1584.03 60.9893 1581.86 59.4533 1580.49 57.32C1579.13 55.1867 1578.44 51.944 1578.44 47.592V27.112C1578.44 24.04 1577.63 21.6933 1576.01 20.072C1574.48 18.4507 1572.17 17.64 1569.1 17.64H1566.8V2.02399H1574.22C1582.16 2.02399 1588.17 3.98666 1592.27 7.91199C1596.36 11.8373 1598.41 17.512 1598.41 24.936V48.104C1598.41 50.0667 1598.88 51.56 1599.82 52.584C1600.84 53.608 1602.25 54.12 1604.04 54.12H1608.27Z" fill="rgb(5, 6, 45)"/>
</svg>
